HIERARCHY
ROOT joint_Root
{
	OFFSET 0.0 0.0 0.0
	CHANNELS 6 Xposition Yposition Zposition Zrotation Xrotation Yrotation 
	JOINT Hips
	{
		OFFSET -17.1583 93.1646 452.98
		CHANNELS 6 Xposition Yposition Zposition Zrotation Xrotation Yrotation 
		JOINT Spine
		{
			OFFSET 15.7357 0.0 0.0
			CHANNELS 6 Xposition Yposition Zposition Zrotation Xrotation Yrotation 
			JOINT Chest
			{
				OFFSET 8.98455 -0.406207 0.0
				CHANNELS 6 Xposition Yposition Zposition Zrotation Xrotation Yrotation 
				JOINT Neck
				{
					OFFSET 16.3773 0.0 0.0
					CHANNELS 6 Xposition Yposition Zposition Zrotation Xrotation Yrotation 
					JOINT Head
					{
						OFFSET 6.45672 0.0 0.0
						CHANNELS 6 Xposition Yposition Zposition Zrotation Xrotation Yrotation 
						End Site
						{
							OFFSET 0.0 0.0 0.0
						}
					}
				}
				JOINT Shoulder_L
				{
					OFFSET 12.9942 -0.242716 4.98039
					CHANNELS 6 Xposition Yposition Zposition Zrotation Xrotation Yrotation 
					JOINT UpperArm_L
					{
						OFFSET 5.34809 0.0 0.0
						CHANNELS 6 Xposition Yposition Zposition Zrotation Xrotation Yrotation 
						JOINT LowerArm_L
						{
							OFFSET 24.3286 1.87007e-05 0.0
							CHANNELS 6 Xposition Yposition Zposition Zrotation Xrotation Yrotation 
							JOINT Hand_L
							{
								OFFSET 22.2916 0.0 0.0
								CHANNELS 6 Xposition Yposition Zposition Zrotation Xrotation Yrotation 
								End Site
								{
									OFFSET 0.0 0.0 0.0
								}
							}
						}
					}
				}
				JOINT Shoulder_R
				{
					OFFSET 12.9945 -0.242716 -4.98039
					CHANNELS 6 Xposition Yposition Zposition Zrotation Xrotation Yrotation 
					JOINT UpperArm_R
					{
						OFFSET -5.34813 0.0 0.0
						CHANNELS 6 Xposition Yposition Zposition Zrotation Xrotation Yrotation 
						JOINT LowerArm_R
						{
							OFFSET -24.3289 0.000322201 0.0
							CHANNELS 6 Xposition Yposition Zposition Zrotation Xrotation Yrotation 
							JOINT Hand_R
							{
								OFFSET -22.2915 -0.000108084 0.0
								CHANNELS 6 Xposition Yposition Zposition Zrotation Xrotation Yrotation 
								End Site
								{
									OFFSET 0.0 0.0 0.0
								}
							}
						}
					}
				}
			}
		}
		JOINT UpperLeg_L
		{
			OFFSET -2.19248 -6.46944 0.0
			CHANNELS 6 Xposition Yposition Zposition Zrotation Xrotation Yrotation 
			JOINT LowerLeg_L
			{
				OFFSET 39.0811 0.0 -1.23785e-05
				CHANNELS 6 Xposition Yposition Zposition Zrotation Xrotation Yrotation 
				JOINT Foot_L
				{
					OFFSET 40.9854 0.0 -1.26872e-05
					CHANNELS 6 Xposition Yposition Zposition Zrotation Xrotation Yrotation 
					JOINT Toes_L
					{
						OFFSET 11.7543 0.0 0.0
						CHANNELS 6 Xposition Yposition Zposition Zrotation Xrotation Yrotation 
						End Site
						{
							OFFSET 0.0 0.0 0.0
						}
					}
				}
			}
		}
		JOINT UpperLeg_R
		{
			OFFSET -2.19251 6.46944 0.0
			CHANNELS 6 Xposition Yposition Zposition Zrotation Xrotation Yrotation 
			JOINT LowerLeg_R
			{
				OFFSET -39.0811 -0.00228153 -0.0401928
				CHANNELS 6 Xposition Yposition Zposition Zrotation Xrotation Yrotation 
				JOINT Foot_R
				{
					OFFSET -40.9854 0.0 0.0
					CHANNELS 6 Xposition Yposition Zposition Zrotation Xrotation Yrotation 
					JOINT Toes_R
					{
						OFFSET -11.7543 0.0 0.0
						CHANNELS 6 Xposition Yposition Zposition Zrotation Xrotation Yrotation 
						End Site
						{
							OFFSET 0.0 0.0 0.0
						}
					}
				}
			}
		}
	}
}
MOTION
Frames:	4
Frame Time:	0.0333333
0.000000 0.000000 0.000000 0.000000 0.000000 -0.000000 -3.464560 93.860300 -522.357000 91.804200 -2.177940 -4.897980 15.735700 0.000005 -0.000001 142.892000 87.208400 -142.783000 8.984550 -0.406207 -0.000000 -4.408670 4.437470 0.389963 16.377300 -0.000001 -0.000001 0.393406 1.994670 -3.715680 6.456720 -0.000001 -0.000000 1.100850 -1.173720 -1.883010 12.994200 -0.242716 4.980390 -93.054100 7.629410 -68.106200 5.348090 -0.000007 -0.000001 -56.725100 -12.877600 10.988900 24.328600 0.000019 0.000005 3.748640 26.734400 -8.287710 22.291600 -0.000001 0.000005 -2.370880 4.959940 8.161460 12.994500 -0.242716 -4.980390 89.278200 2.773120 -75.404900 -5.348130 -0.000001 -0.000004 -64.671000 20.314500 -17.880900 -24.328900 0.000322 -0.000009 -1.123070 -1.731570 -32.958300 -22.291500 -0.000108 -0.000004 2.454930 5.347410 -1.297160 -2.192480 -6.469440 -0.000000 -177.495000 -1.002240 -26.788200 39.081100 -0.000007 -0.000012 0.029811 -0.110101 15.150300 40.985400 -0.000006 -0.000013 -7.451770 11.287300 -64.428700 11.754300 -0.000000 0.000003 0.002454 0.074144 -13.569700 -2.192510 6.469440 -0.000001 175.464000 11.235300 -174.002000 -39.081100 -0.002282 -0.040193 0.006792 -0.014179 13.712600 -40.985400 0.000008 0.000006 -5.345330 14.163300 -61.780600 -11.754300 -0.000006 -0.000006 -0.002897 -0.039427 -18.176500
0.000000 0.000000 0.000000 0.000000 0.000000 -0.000000 -3.043070 93.438300 -520.136000 91.577300 -2.731400 -5.734350 15.735700 0.000005 -0.000001 146.292000 87.124100 -146.113000 8.984550 -0.406207 -0.000000 -4.589820 4.761280 0.549001 16.377300 -0.000001 -0.000001 -0.724818 2.288330 -3.779330 6.456720 -0.000001 -0.000000 0.425621 -1.087240 -1.942810 12.994200 -0.242716 4.980390 -92.831900 6.994340 -67.891800 5.348090 -0.000007 -0.000001 -53.402700 -14.658100 13.343700 24.328600 0.000019 0.000005 3.657540 23.539700 -9.093750 22.291600 -0.000001 0.000005 -1.134600 4.959880 8.159000 12.994500 -0.242716 -4.980390 89.400800 2.363450 -75.769900 -5.348130 -0.000001 -0.000004 -62.445600 20.646400 -20.401300 -24.328900 0.000322 -0.000009 -0.841872 -1.070120 -38.174200 -22.291500 -0.000108 -0.000004 3.435430 5.360770 -1.701800 -2.192480 -6.469440 -0.000000 -177.227000 -0.923752 -26.636600 39.081100 -0.000007 -0.000012 0.011319 -0.086505 7.455380 40.985400 -0.000006 -0.000013 -8.014370 11.132600 -64.312400 11.754300 -0.000000 0.000003 0.002463 0.075500 -13.514800 -2.192510 6.469440 -0.000001 175.231000 10.682400 -173.860000 -39.081100 -0.002282 -0.040193 0.000573 0.010845 14.269700 -40.985400 0.000008 0.000006 -5.061250 14.262000 -61.556100 -11.754300 -0.000006 -0.000006 -0.007946 -0.087595 -20.140000
0.000000 0.000000 0.000000 0.000000 0.000000 -0.000000 -2.569860 92.750500 -517.663000 91.303800 -2.872670 -6.586150 15.735700 0.000005 -0.000001 148.977000 87.144700 -148.680000 8.984550 -0.406207 -0.000000 -4.844840 4.856220 0.801938 16.377300 -0.000001 -0.000001 -1.639730 2.524610 -3.950320 6.456720 -0.000001 -0.000000 -0.151052 -1.022340 -1.823780 12.994200 -0.242716 4.980390 -92.667700 6.595910 -67.920700 5.348090 -0.000007 -0.000001 -50.235700 -17.041200 15.183900 24.328600 0.000019 0.000005 3.349100 21.301300 -9.150910 22.291600 -0.000001 0.000005 1.264980 4.922870 8.908430 12.994500 -0.242716 -4.980390 89.438800 2.254760 -76.019600 -5.348130 -0.000001 -0.000004 -60.334000 20.261400 -22.464600 -24.328900 0.000322 -0.000009 -0.832028 -0.911214 -42.363400 -22.291500 -0.000108 -0.000004 4.031860 5.375840 -2.167880 -2.192480 -6.469440 -0.000000 -177.542000 -1.133590 -28.955400 39.081100 -0.000007 -0.000012 -0.000352 0.003135 6.399400 40.985400 -0.000006 -0.000013 -6.606740 8.559340 -66.419900 11.754300 -0.000000 0.000003 0.002467 0.076212 -13.485900 -2.192510 6.469440 -0.000001 175.005000 10.246100 -173.587000 -39.081100 -0.002282 -0.040193 -0.005921 0.034153 15.156200 -40.985400 0.000008 0.000006 -5.041570 14.285400 -61.956700 -11.754300 -0.000006 -0.000006 -0.013957 -0.131149 -21.922400
0.000000 0.000000 0.000000 0.000000 0.000000 -0.000000 -2.041480 91.842300 -514.752000 90.844800 -3.089360 -6.950390 15.735700 0.000005 -0.000001 149.003000 87.042900 -148.525000 8.984550 -0.406207 -0.000000 -4.750730 5.012760 1.165490 16.377300 -0.000001 -0.000001 -2.509630 2.727970 -4.022140 6.456720 -0.000001 -0.000000 -0.741097 -0.887110 -1.706340 12.994200 -0.242716 4.980390 -92.589700 6.462750 -68.108400 5.348090 -0.000007 -0.000001 -47.536500 -19.276800 16.301800 24.328600 0.000019 0.000005 2.798690 19.119700 -8.487840 22.291600 -0.000001 0.000005 5.005670 4.859810 10.151000 12.994500 -0.242716 -4.980390 89.477000 2.159280 -76.380300 -5.348130 -0.000001 -0.000004 -59.266900 18.880200 -23.604400 -24.328900 0.000322 -0.000009 -0.778751 -0.760866 -45.631100 -22.291500 -0.000108 -0.000004 4.051520 5.382380 -2.373320 -2.192480 -6.469440 -0.000000 -178.598000 -3.282100 -30.041400 39.081100 -0.000007 -0.000012 0.000321 -0.002773 6.610770 40.985400 -0.000006 -0.000013 -7.577640 7.849800 -66.416500 11.754300 -0.000000 0.000003 0.002477 0.078387 -13.397700 -2.192510 6.469440 -0.000001 174.827000 9.592790 -172.764000 -39.081100 -0.002282 -0.040193 -0.013326 0.056125 16.527000 -40.985400 0.000008 0.000006 -4.831930 14.147400 -62.599900 -11.754300 -0.000006 -0.000006 -0.023776 -0.187370 -24.236200
